<svg
  id="roffline-logo"
  version="1.1"
  viewBox="0 0 64 64"
  xml:space="preserve"
  xmlns="http://www.w3.org/2000/svg"
  xmlns:xlink="http://www.w3.org/1999/xlink"
>
  <style>
    .colored-path {
      fill: #d2d6dd;
    }
  </style>
  <title>Roffline Logo</title>
  <g>
    <!-- prettier-ignore -->
    <path class="colored-path"
              d="M42,27H28.333c-2.835,0-5.371-1.691-6.462-4.308l-2.949-7.077L16,16l-1,2l-1.731,1.816l2.697,6.069   C16.652,27.429,17,29.069,17,30.759V38c0,3.86,3.14,7,7,7h18c4.962,0,9-4.038,9-9S46.962,27,42,27z M28,44c-2.209,0-4-1.791-4-4   c0-2.209,1.791-4,4-4s4,1.791,4,4C32,42.209,30.209,44,28,44z M42,40c-2.209,0-4-1.791-4-4c0-2.209,1.791-4,4-4s4,1.791,4,4   C46,38.209,44.209,40,42,40z"
             
            />
    <!-- prettier-ignore -->
    <path class="colored-path"
              d="M42,35c0,1.66-1.34,3-3,3c-0.16,0-0.31-0.01-0.46-0.03l-0.01,0.01C38.19,37.39,38,36.72,38,36   c0-1.64,0.98-3.04,2.4-3.66C41.35,32.85,42,33.84,42,35z"
             
            />
    <!-- prettier-ignore -->
    <path class="colored-path"
              d="M28,36c1.64,0,3.04,0.98,3.66,2.4C31.15,39.35,30.16,40,29,40c-1.66,0-3-1.34-3-3   c0-0.16,0.01-0.31,0.03-0.46l-0.01-0.01C26.61,36.19,27.28,36,28,36z"
             
            />
    <g fill="currentColor">
      <path
        d="M49,37v-2h-2.101c-0.13-0.637-0.384-1.229-0.732-1.753l1.54-1.54l-1.414-1.414l-1.54,1.54    c-0.524-0.348-1.116-0.602-1.753-0.732V29h-2v2.101c-0.637,0.13-1.229,0.384-1.753,0.732l-1.54-1.54l-1.414,1.414l1.54,1.54    c-0.348,0.524-0.602,1.116-0.732,1.753H35v2h2.101c0.13,0.637,0.384,1.229,0.732,1.753l-1.54,1.54l1.414,1.414l1.54-1.54    c0.524,0.348,1.116,0.602,1.753,0.732V43h2v-2.101c0.637-0.13,1.229-0.384,1.753-0.732l1.54,1.54l1.414-1.414l-1.54-1.54    c0.348-0.524,0.602-1.116,0.732-1.753H49z M42,39c-1.654,0-3-1.346-3-3s1.346-3,3-3s3,1.346,3,3S43.654,39,42,39z"
      />
      <path
        d="M32.167,37.247l1.54-1.54l-1.414-1.414l-1.54,1.54c-0.524-0.348-1.116-0.602-1.753-0.732V33h-2v2.101    c-0.637,0.13-1.229,0.384-1.753,0.732l-1.54-1.54l-1.414,1.414l1.54,1.54c-0.348,0.524-0.602,1.116-0.732,1.753H21v2h2.101    c0.465,2.279,2.484,4,4.899,4s4.434-1.721,4.899-4H35v-2h-2.101C32.769,38.363,32.515,37.771,32.167,37.247z M28,43    c-1.654,0-3-1.346-3-3s1.346-3,3-3s3,1.346,3,3S29.654,43,28,43z"
      />
      <rect height="2" width="2" x="21" y="31" />
      <rect height="3" width="2" x="31" y="28" />
    </g>
    <g fill="currentColor">
      <path
        d="M63,18.941v-4.997c0-3.431-1.906-6.516-4.975-8.05L55,4.382v2.171c-0.678-0.774-1.501-1.422-2.433-1.888l-1.12-0.56    c-1.098-0.548-2.004-1.455-2.553-2.553l-0.621-1.241L46.86,1.726C45.661,2.925,45,4.52,45,6.216c0,1.365,0.451,2.718,1.271,3.811    l3.374,4.498C50.519,15.691,51,17.136,51,18.594c0,2.344-1.238,4.547-3.232,5.773C46.027,23.5,44.073,23,42,23H28.708    c-1.234,0-2.327-0.74-2.785-1.886l-1.949-4.873C24.598,15.691,25,14.895,25,14V7c0-3.309-2.691-6-6-6h-0.586    c-1.058,0-2.059,0.37-2.855,1.047l-4.284,0.536c-2.44,0.305-4.48,2.112-5.077,4.498l-0.997,3.988    c-0.055,0.222-0.187,0.42-0.37,0.558l-2.276,1.707C1.582,14.064,1,15.227,1,16.444c0,0.496,0.094,0.982,0.278,1.444L2.443,20.8    c0.534,1.336,1.81,2.2,3.25,2.2c0.287,0,0.573-0.035,0.849-0.104l3.286-0.822l2.569,5.781c0.4,0.901,0.604,1.857,0.604,2.843    v7.669c0,2.484,0.709,4.89,2.041,6.98l-1.801,10.202c-0.068,0.388-0.36,0.701-0.742,0.796l-1.227,0.306    C9.935,56.985,9,58.182,9,59.562V61H1v2h62v-2h-9.976c0.053-0.631,0.22-1.253,0.503-1.82l0.836-1.673    C54.78,56.675,55,55.744,55,54.815c0-0.649-0.104-1.29-0.309-1.904l-1.426-4.279C53.089,48.105,53,47.556,53,47    s0.089-1.105,0.265-1.633l0.418-1.256C54.557,41.491,55,38.762,55,36c0-1.971-0.453-3.833-1.241-5.508    C59.14,29.277,63,24.504,63,18.941z M17,3.458C17.409,3.164,17.907,3,18.414,3H19c2.206,0,4,1.794,4,4v7c0,0.551-0.449,1-1,1h-4    c-0.551,0-1-0.449-1-1V3.458z M15,60.236V61h-4v-1.438c0-0.46,0.312-0.859,0.757-0.97l1.227-0.306    c1.147-0.287,2.021-1.225,2.227-2.389l1.434-8.126l1.012,1.518C18.535,50.605,19,52.14,19,53.725v2.039    c0,0.381-0.212,0.724-0.553,0.894l-1.789,0.895C15.635,58.064,15,59.093,15,60.236z M43,60.562V61H25.024    c0.053-0.631,0.22-1.253,0.503-1.82l0.836-1.673C26.78,56.675,27,55.744,27,54.815c0-0.649-0.104-1.29-0.309-1.904L25.388,49    h18.547c0.304,0.528,0.674,1.022,1.116,1.464l0.485,0.485C46.48,51.894,47,53.15,47,54.485l0,2.734l-1.728,0.432    C43.935,57.985,43,59.182,43,60.562z M51.786,43.479l-0.418,1.256C51.124,45.467,51,46.229,51,47s0.124,1.533,0.368,2.265    l1.426,4.279C52.931,53.954,53,54.381,53,54.815c0,0.621-0.147,1.242-0.425,1.798l-0.836,1.673    c-0.421,0.842-0.658,1.773-0.714,2.714H45v-0.438c0-0.46,0.312-0.859,0.757-0.97l1.728-0.432C48.377,58.937,49,58.139,49,57.219    v-2.734c0-1.87-0.728-3.627-2.05-4.95l-0.485-0.485C45.52,48.106,45,46.85,45,45.515v-1.04c-0.638,0.227-1.306,0.389-2,0.466    v0.574c0,0.506,0.058,1.002,0.162,1.485H25c0-0.556,0.089-1.105,0.265-1.633L25.387,45H24c-0.233,0-0.462-0.013-0.689-0.035    C23.114,45.627,23,46.308,23,47c0,0.771,0.124,1.533,0.368,2.265l1.426,4.279C24.931,53.954,25,54.381,25,54.815    c0,0.621-0.147,1.242-0.425,1.798l-0.836,1.673c-0.421,0.842-0.658,1.773-0.714,2.714H17v-0.764c0-0.381,0.212-0.724,0.553-0.894    l1.789-0.895C20.365,57.936,21,56.907,21,55.764v-2.039c0-1.981-0.581-3.899-1.68-5.547l-2.473-3.71    C15.639,42.656,15,40.546,15,38.367v-7.669c0-1.267-0.261-2.497-0.776-3.655l-2.427-5.461l1.107-0.277    c1.134-0.284,2.085-1.046,2.607-2.092l0.383-0.766l-1.789-0.895l-0.383,0.766c-0.261,0.522-0.736,0.904-1.304,1.045l-6.364,1.591    c-0.71,0.176-1.481-0.212-1.754-0.898l-1.165-2.912C3.045,16.921,3,16.685,3,16.444c0-0.591,0.282-1.155,0.755-1.51l2.277-1.708    c0.549-0.413,0.944-1.006,1.11-1.672l0.997-3.987c0.397-1.591,1.758-2.796,3.384-2.999L15,4.133V14c0,1.654,1.346,3,3,3h4    c0.04,0,0.078-0.01,0.118-0.012l1.947,4.868C24.829,23.766,26.651,25,28.708,25H42c6.065,0,11,4.935,11,11    C53,38.546,52.592,41.062,51.786,43.479z M52.909,28.637l-0.182,0.033c-0.841-1.226-1.892-2.293-3.092-3.169    C51.732,23.851,53,21.293,53,18.594c0-1.888-0.624-3.759-1.756-5.269L47.87,8.827C47.309,8.079,47,7.151,47,6.216    c0-0.94,0.296-1.835,0.845-2.578c0.714,0.945,1.645,1.725,2.708,2.256l1.12,0.56c1.354,0.677,2.405,1.862,2.932,3.276    c-0.225,0.696-0.537,1.364-0.949,1.982l-0.488,0.733l1.664,1.109l0.488-0.732c1.036-1.553,1.611-3.346,1.674-5.207l0.136,0.068    C59.517,8.877,61,11.276,61,13.944V14c0,2.086-1.159,3.961-3.024,4.895l-0.422,0.211l0.894,1.789l0.423-0.211    c0.819-0.41,1.525-0.964,2.124-1.606C60.929,23.783,57.552,27.792,52.909,28.637z"
      />
      <circle cx="10" cy="10" r="1" />
    </g>
  </g>
</svg>
